<?xml version="1.0" encoding="UTF-8"?>
<svg width="24px" height="24px" viewBox="0 0 24 24" version="1.1" xmlns="http://www.w3.org/2000/svg" xmlns:xlink="http://www.w3.org/1999/xlink">
    <!-- Generator: Sketch 61.2 (89653) - https://sketch.com -->
    <title>Icons/Link/24</title>
    <desc>Created with Sketch.</desc>
    <g id="Icons/Link/24" stroke="none" stroke-width="1" fill-rule="evenodd">
        <g id="Group" transform="translate(2.000000, 2.000000)" fill-rule="nonzero">
            <path d="M18.4791667,1.52083333 C17.5625,0.604166667 16.3541667,0.104166667 15.0625,0.104166667 C13.7708333,0.104166667 12.5625,0.604166667 11.6458333,1.52083333 L9.41666667,3.72916667 L10.9583333,5.27083333 L13.1666667,3.0625 C14.1666667,2.0625 15.9166667,2.0625 16.8958333,3.0625 C17.9166667,4.08333333 17.9166667,5.77083333 16.8958333,6.79166667 L13.25,10.5 C12.25,11.5 10.5,11.5 9.52083333,10.5 C9.20141242,10.8316406 8.20141242,11.8316406 7.97916667,12.0416667 C8.89583333,12.9583333 10.1041667,13.4583333 11.3958333,13.4583333 C12.6875,13.4583333 13.8958333,12.9583333 14.8125,12.0416667 L18.5,8.35416667 C19.4166667,7.4375 19.9166667,6.22916667 19.9166667,4.9375 C19.9166667,3.64583333 19.3958333,2.4375 18.4791667,1.52083333 Z"></path>
            <path d="M9.02083333,14.7083333 L6.8125,16.9375 C5.79166667,17.9583333 4.10416667,17.9583333 3.08333333,16.9375 C2.0625,15.9166667 2.0625,14.2291667 3.08333333,13.2083333 L6.77083333,9.52083333 C7.79166667,8.5 9.47916667,8.5 10.5,9.52083333 C10.7014124,9.33164062 11.7014124,8.33164062 12.0416667,7.97916667 C10.1458333,6.08333333 7.08333333,6.08333333 5.20833333,7.97916667 L1.52083333,11.6458333 C-0.375,13.5416667 -0.375,16.6041667 1.52083333,18.4791667 C2.45833333,19.4166667 3.70833333,19.8958333 4.9375,19.8958333 C6.16666667,19.8958333 7.41666667,19.4166667 8.35416667,18.4791667 L10.5625,16.2708333 L9.02083333,14.7083333 Z"></path>
        </g>
    </g>
</svg>