<?xml version="1.0" encoding="UTF-8"?>
<svg width="24px" height="24px" viewBox="0 0 24 24" version="1.1" xmlns="http://www.w3.org/2000/svg" xmlns:xlink="http://www.w3.org/1999/xlink">
    <!-- Generator: Sketch 61.2 (89653) - https://sketch.com -->
    <title>Icons/Share_Linkedin/24</title>
    <desc>Created with Sketch.</desc>
    <g id="Icons/Share_Linkedin/24" stroke="none" stroke-width="1" fill="none" fill-rule="evenodd">
        <path d="M3.2977609,8.98664525 L7.03352102,8.98664525 L7.03352102,20.9835027 L3.2977609,20.9835027 L3.2977609,8.98664525 Z M5.16289119,3.01571297 C6.35472044,3.01571297 7.32342543,3.98441925 7.32342543,5.1762485 C7.32342543,6.36807775 6.35472044,7.33913969 5.16367684,7.33913969 C3.97009246,7.33654877 3.0030244,6.36983186 3,5.1762485 C3,4.60283059 3.22795023,4.05293277 3.63363891,3.64768618 C4.03932758,3.24243959 4.58947362,3.01508871 5.16289119,3.01571297 M9.36611235,8.98664525 L12.9423858,8.98664525 L12.9423858,10.6262943 L12.9918816,10.6262943 C13.489983,9.68351575 14.7061673,8.68888435 16.5273013,8.68888435 C20.3031295,8.68888435 21,11.1738916 21,14.4036938 L21,20.9842883 L17.2736677,20.9842883 L17.2736677,15.1484889 C17.2736677,13.7578905 17.2485269,11.9666112 15.3362577,11.9666112 C13.3957051,11.9666112 13.0971586,13.4829134 13.0971586,15.0463546 L13.0971586,20.9811457 L9.37161189,20.9811457 L9.37161189,8.98428831 L9.36611235,8.98664525 Z" id="Shape" fill="#000000"></path>
    </g>
</svg>