
<svg width="51px" height="51px" viewBox="0 0 51 51" version="1.1" xmlns="http://www.w3.org/2000/svg" xmlns:xlink="http://www.w3.org/1999/xlink">
  <g transform="translate(-360.000000, -657.000000)">
    <g transform="translate(359.000000, 656.000000)">
      <polygon points="8.06965152 42.035825 11.0906515 45.09245 19.6348939 36.449075 16.6138939 33.39245"></polygon>
      <polygon points="20.1136606 50.7622375 24.2396303 51.8818625 27.1353576 40.9456125 23.0093879 39.8276125"></polygon>
      <polygon points="12.167997 25.8015875 1.36081515 28.7314625 2.46578485 32.9077125 13.2729667 29.9745875"></polygon>
      <path d="M51.4223667,12.5334625 C51.4223667,9.5142125 50.2595788,6.6753375 48.1508212,4.5384625 C46.0404576,2.4048375 43.2346697,1.2299625 40.2506091,1.2299625 C37.2681545,1.2299625 34.4607606,2.4048375 32.350397,4.5384625 L22.7525788,14.2510875 L5.70103333,14.2510875 L38.553003,47.4904625 L38.553003,30.2475875 L48.1508212,20.5268375 C50.2595788,18.3899625 51.4223667,15.5510875 51.4223667,12.5334625 L51.4223667,12.5334625 Z M34.2808818,37.0547125 L16.0151545,18.5735875 L22.7525788,18.5735875 L34.2808818,30.2475875 L34.2808818,37.0547125 Z M45.1282152,17.4702125 L36.4169424,26.2972125 L26.6569121,16.4123375 L35.371397,7.5967125 C36.6739121,6.2772125 38.4068515,5.5508375 40.2506091,5.5508375 C42.0927606,5.5508375 43.8273061,6.2772125 45.1282152,7.5967125 C47.8199727,10.3185875 47.8199727,14.7467125 45.1282152,17.4702125 L45.1282152,17.4702125 Z"></path>
    </g>
  </g>
</svg>
