<?xml version="1.0" encoding="UTF-8"?>
<svg width="24px" height="24px" viewBox="0 0 24 24" version="1.1" xmlns="http://www.w3.org/2000/svg" xmlns:xlink="http://www.w3.org/1999/xlink">
    <!-- Generator: Sketch 61.2 (89653) - https://sketch.com -->
    <title>Icons/Share_twitter/24</title>
    <desc>Created with Sketch.</desc>
    <g id="Icons/Share_twitter/24" stroke="none" stroke-width="1" fill="none" fill-rule="evenodd">
        <path d="M8.28251301,20.1312525 C15.8295318,20.1312525 19.9591837,13.8727491 19.9591837,8.45458183 C19.9591837,8.2785114 19.9591837,8.10244098 19.9511805,7.92637055 C20.7515006,7.35014006 21.4477791,6.62184874 22,5.79751901 C21.2637055,6.12565026 20.4713886,6.34173669 19.6390556,6.44577831 C20.487395,5.94157663 21.1356543,5.1332533 21.4477791,4.17286915 C20.6554622,4.64505802 19.77511,4.98119248 18.8387355,5.16526611 C18.0864346,4.36494598 17.0220088,3.8687475 15.8455382,3.8687475 C13.5806323,3.8687475 11.739896,5.70948379 11.739896,7.97438976 C11.739896,8.29451781 11.779912,8.60664266 11.8439376,8.91076431 C8.43457383,8.74269708 5.40936375,7.10204082 3.38455382,4.62104842 C3.03241297,5.22929172 2.83233293,5.93357343 2.83233293,6.68587435 C2.83233293,8.11044418 3.56062425,9.36694678 4.65706283,10.1032413 C3.98479392,10.0792317 3.35254102,9.89515806 2.80032013,9.59103641 C2.80032013,9.60704282 2.80032013,9.62304922 2.80032013,9.64705882 C2.80032013,11.6318527 4.21688675,13.2965186 6.08963585,13.6726691 C5.7454982,13.7687075 5.38535414,13.8167267 5.00920368,13.8167267 C4.74509804,13.8167267 4.4889956,13.7927171 4.24089636,13.7446979 C4.76110444,15.3773509 6.28171269,16.5618247 8.07442977,16.5938375 C6.66586635,17.6982793 4.89715886,18.3545418 2.97639056,18.3545418 C2.6482593,18.3545418 2.32012805,18.3385354 2,18.2985194 C3.80872349,19.4509804 5.96958784,20.1312525 8.28251301,20.1312525" id="Path" fill="#000000"></path>
    </g>
</svg>