
<svg width="44px" height="42px" viewBox="0 0 44 42" version="1.1" xmlns="http://www.w3.org/2000/svg" xmlns:xlink="http://www.w3.org/1999/xlink">
  <g transform="translate(-944.000000, -1011.000000)">
    <g transform="translate(944.000000, 1011.000000)">
      <path d="M26.8190396,19.2763327 C27.2545293,18.801189 27.8718496,18.5303315 28.5192292,18.5303315 L31.1866615,18.5303315 C32.4909178,18.5303315 33.7337648,17.9807522 34.6052976,17.0184855 L44,6.64680002 L42.578273,5.23682286 L35.673045,12.0849829 L34.6575785,11.0779086 L41.3596763,4.02829714 L39.9380415,2.61841143 L32.8297755,9.26512 L31.8142167,8.25813716 L38.7194447,1.40997715 L37.29781,0 L26.8396938,9.31696883 C25.8694082,10.1813903 25.3151569,11.4139658 25.3151569,12.7074431 L25.3151569,15.5197161 C25.3151569,16.1579047 25.0453617,16.7667398 24.5714219,17.1983561 L21.3594199,20.143406 L1.57059235,0.455391804 C0.955577187,-0.154632036 -0.096679647,0.345933172 0.00714450259,1.20258185 C0.588781035,6.00093007 3.19130024,11.5435421 8.65709769,16.9641677 L12.6782089,20.952138 L17.0097782,20.952138 L18.5550614,22.7148152 L2.52852227,37.4096137 L6.48057101,41.2940692 L21.0324568,25.5406219 L35.0358082,41.5135352 L39.0867941,37.7805112 L23.787024,22.55872 L26.8190396,19.2763327 Z"></path>
    </g>
  </g>
</svg>
