
<svg width="64px" height="64px" viewBox="0 0 64 64" version="1.1" xmlns="http://www.w3.org/2000/svg" xmlns:xlink="http://www.w3.org/1999/xlink">
  <g id="mobile---wireframes" stroke="none" stroke-width="1" fill="none" fill-rule="evenodd" stroke-linecap="round" stroke-linejoin="round">
    <g id="Mobile---menu-open-Copy" transform="translate(-249.000000, -185.000000)" stroke="#000000" stroke-width="4">
      <g id="smiley-one-eye-smile" transform="translate(251.000000, 187.000000)">
        <path d="M39.5,18.375 C38.8786797,18.375 38.375,18.8786797 38.375,19.5 C38.375,20.1213203 38.8786797,20.625 39.5,20.625 C40.1213203,20.625 40.625,20.1213203 40.625,19.5 C40.625,18.8786797 40.1213203,18.375 39.5,18.375" id="Path"></path>
        <circle id="Oval" cx="40" cy="20" r="8"></circle>
        <circle id="Oval" cx="30" cy="30" r="30"></circle>
        <path d="M46.9977138,36 C47.6477635,36 48.2573243,36.3150164 48.6325929,36.8446454 C49.0078614,37.3742744 49.1021418,38.0527048 48.8854586,38.664237 C46.060925,46.6554178 38.4921878,52 30,52 C21.5078122,52 13.939075,46.6554178 11.1145414,38.664237 C10.8978582,38.0527048 10.9921386,37.3742744 11.3674071,36.8446454 C11.7426757,36.3150164 12.3522365,36 13.0022862,36 L46.9977138,36 Z" id="Path"></path>
        <circle id="Oval" cx="18" cy="20" r="6"></circle>
      </g>
    </g>
  </g>
</svg>