<svg width="40px" height="40px" viewBox="0 0 40 40" version="1.1" xmlns="http://www.w3.org/2000/svg" xmlns:xlink="http://www.w3.org/1999/xlink">
  <g transform="translate(-1129.000000, -912.000000)">
    <g transform="translate(1129.000000, 912.000000)">
      <path d="M25.6586538,0.0894230769 C20.1429402,0.0865341793 15.1159841,3.25216583 12.7350368,8.22752459 C10.3540895,13.2028834 11.0424851,19.1034658 14.5048077,23.3971154 L0.0153846154,37.8846154 L2.18557692,40.0557692 L16.6778846,25.5673077 C21.5799139,29.5191299 28.4875502,29.8071934 33.7015861,26.2772331 C38.915622,22.7472728 41.2137887,16.2267782 39.3653621,10.207633 C37.5169355,4.18848777 31.9552217,0.0816934831 25.6586538,0.0865341793 L25.6586538,0.0894230769 Z M25.6586538,25.6711538 C19.4422642,25.6711538 14.4028846,20.6317743 14.4028846,14.4153846 C14.4028846,8.19899492 19.4422642,3.15961538 25.6586538,3.15961538 C31.8750435,3.15961538 36.9144231,8.19899492 36.9144231,14.4153846 C36.908065,20.6294502 31.8727183,25.6656572 25.6586538,25.6730769 L25.6586538,25.6711538 Z" fill-rule="nonzero"></path>
    </g>
  </g>
</svg>
