
<svg width="50px" height="48px" viewBox="0 0 50 48" version="1.1" xmlns="http://www.w3.org/2000/svg" xmlns:xlink="http://www.w3.org/1999/xlink">
  <g id="Symbols" stroke="none" stroke-width="1" fill="none" fill-rule="evenodd" stroke-linecap="round" stroke-linejoin="round">
    <g id="Project/.suprise-me-btn" transform="translate(-25.000000, -51.000000)" stroke="#000000" stroke-width="2">
      <g id="Group">
        <g>
          <g transform="translate(26.000000, 52.000000)" id="Regular">
            <g>
              <line x1="47.5227273" y1="0.477272727" x2="17.7272727" y2="22.4318182" id="Shape"></line>
              <line x1="13.0227273" y1="3.61363636" x2="19.2954545" y2="3.61363636" id="Shape"></line>
              <line x1="16.1590909" y1="0.477272727" x2="16.1590909" y2="6.75" id="Shape"></line>
              <line x1="2.04545455" y1="16.1590909" x2="11.4545455" y2="16.1590909" id="Shape"></line>
              <line x1="6.75" y1="11.4545455" x2="6.75" y2="20.8636364" id="Shape"></line>
              <path d="M37.9087273,47.5227273 C37.4006364,44.033 36.9699091,39.8804545 36.7357273,35.04" id="Shape"></path>
              <path d="M11.2642727,35.04 C11.0300909,39.8804545 10.5993636,44.0309091 10.0912727,47.5227273" id="Shape"></path>
              <path d="M34.9772727,18.8124545 C42.4376364,20.3910909 47.5227273,23.5253636 47.5227273,27.1363636 C47.5227273,32.3322727 36.9908182,36.5454545 24,36.5454545 C11.0091818,36.5454545 0.477272727,32.3322727 0.477272727,27.1363636 C0.47915549,26.5969907 0.590106966,26.0635701 0.803454545,25.5681818" id="Shape"></path>
              <path d="M25.5681818,24.0188182 C32.625,24.1923636 38.1136364,25.5221818 38.1136364,27.1363636 C38.1136364,28.8676364 31.7949091,30.2727273 24,30.2727273 C16.2050909,30.2727273 9.88636364,28.8676364 9.88636364,27.1363636" id="Shape"></path>
            </g>
          </g>
        </g>
      </g>
    </g>
  </g>
</svg>