
<svg width="64px" height="66px" viewBox="0 0 64 66" version="1.1" xmlns="http://www.w3.org/2000/svg" xmlns:xlink="http://www.w3.org/1999/xlink">
  <g id="mobile---wireframes" stroke="none" stroke-width="1" fill="none" fill-rule="evenodd" stroke-linecap="round" stroke-linejoin="round">
    <g id="Mobile---menu-open-Copy" transform="translate(-62.000000, -143.000000)" stroke="#FFFFFF" stroke-width="4">
      <g id="tags-search" transform="translate(64.000000, 145.000000)">
        <path d="M21.9927273,50.3309091 C20.3952279,51.9279261 17.8056812,51.9279261 16.2081818,50.3309091 L1.53818182,35.6636364 C0.770420421,34.8963669 0.339055185,33.8554308 0.339055185,32.77 C0.339055185,31.6845692 0.770420421,30.6436331 1.53818182,29.8763636 L30.1745455,1.24 C30.9421186,0.472918445 31.9830172,0.0427268522 33.0681818,0.0427268522 L47.7272727,0.0427268522 C49.9866194,0.0427268522 51.8181818,1.87428966 51.8181818,4.13363636 L51.8181818,18.8036364 C51.817227,19.8882474 51.3855954,20.9280871 50.6181818,21.6945455" id="Path"></path>
        <path d="M41.6018182,9.24727273 C41.0369815,9.24727273 40.5790909,9.70516332 40.5790909,10.27 C40.5790909,10.8348367 41.0369815,11.2927273 41.6018182,11.2927273 C42.1666549,11.2927273 42.6245455,10.8348367 42.6245455,10.27 C42.6252723,9.9985337 42.5177544,9.7379765 42.325798,9.54602015 C42.1338417,9.3540638 41.8732845,9.24654591 41.6018182,9.24727273 L41.6018182,9.24727273" id="Path"></path>
        <circle id="Oval" cx="41.25" cy="42.9972727" r="14.3181818"></circle>
        <line x1="59.6590909" y1="61.4063636" x2="51.4390909" y2="53.1863636" id="Path"></line>
      </g>
    </g>
  </g>
</svg>